<svg width="19" height="21" viewBox="0 0 19 21" fill="none" xmlns="http://www.w3.org/2000/svg">
<path fill-rule="evenodd" clip-rule="evenodd" d="M7.26214 0.921629C7.85593 0.33152 8.66128 0 9.50103 0C10.3408 0 11.1461 0.33152 11.7399 0.921629C12.3337 1.51174 12.6673 2.3121 12.6673 3.14664C12.6673 3.98118 12.3337 4.78154 11.7399 5.37165C11.1461 5.96176 10.3408 6.29328 9.50103 6.29328C8.66128 6.29328 7.85593 5.96176 7.26214 5.37165C6.66835 4.78154 6.33476 3.98118 6.33476 3.14664C6.33476 2.3121 6.66835 1.51174 7.26214 0.921629ZM0.000158325 13.8321C0.000158325 10.2662 2.94243 7.34011 6.53059 7.34011C7.61263 7.34011 8.59981 7.68896 9.50103 8.18003C10.4021 7.68947 11.3885 7.34011 12.4694 7.34011C16.0576 7.34011 18.9998 10.2662 18.9998 13.8321V19.4043C19.0028 19.6128 18.9641 19.8197 18.8858 20.0132C18.8076 20.2067 18.6915 20.3828 18.5442 20.5312C18.3969 20.6797 18.2213 20.7976 18.0278 20.8781C17.8342 20.9586 17.6265 21 17.4167 21C17.3388 21 17.2613 20.9943 17.1846 20.983C17.1248 20.9942 17.0631 21 17 21H2C1.93694 21 1.87524 20.9942 1.81542 20.983C1.73874 20.9943 1.66116 21 1.58329 21C1.37349 21 1.16578 20.9586 0.972226 20.8781C0.778676 20.7976 0.60315 20.6797 0.455848 20.5312C0.308546 20.3828 0.192406 20.2067 0.114177 20.0132C0.0359487 19.8197 -0.00280855 19.6128 0.000158325 19.4043V13.8321Z" fill="#D4D4D4"/>
</svg>
