<svg width="55" height="55" viewBox="0 0 55 55" fill="none" xmlns="http://www.w3.org/2000/svg">
<circle cx="27.5" cy="27.5" r="27.5" fill="#31D692"/>
<path d="M23.2 26.6C22.096 26.6 21.2 27.496 21.2 28.6C21.2 29.704 22.096 30.6 23.2 30.6C24.304 30.6 25.2 29.704 25.2 28.6C25.2 27.496 24.304 26.6 23.2 26.6ZM32.8 26.6C31.696 26.6 30.8 27.496 30.8 28.6C30.8 29.704 31.696 30.6 32.8 30.6C33.904 30.6 34.8 29.704 34.8 28.6C34.8 27.496 33.904 26.6 32.8 26.6ZM28 11C19.168 11 12 18.168 12 27C12 35.832 19.168 43 28 43C36.832 43 44 35.832 44 27C44 18.168 36.832 11 28 11ZM28 39.8C20.944 39.8 15.2 34.056 15.2 27C15.2 26.536 15.232 26.072 15.28 25.624C19.056 23.944 22.048 20.856 23.616 17.032C26.512 21.128 31.28 23.8 36.672 23.8C37.92 23.8 39.12 23.656 40.272 23.384C40.608 24.52 40.8 25.736 40.8 27C40.8 34.056 35.056 39.8 28 39.8Z" fill="#F9F9F9"/>
</svg>
